<!-- <?xml version="1.0" encoding="UTF-8"?> -->
<svg xmlns="http://www.w3.org/2000/svg" xmlns:xlink="http://www.w3.org/1999/xlink" viewBox="0 0 48 48" width="48px" height="48px">
    <g id="surface1335202" >
        <path style="fill-rule:nonzero;fill:rgb(0%,0%,0%);fill-opacity:1;stroke-width:20;stroke-linecap:butt;stroke-linejoin:round;stroke:rgb(100%,100%,100%);stroke-opacity:1;stroke-miterlimit:10;" d="M 157.660743 43.000593 L 157.660743 128.999408 C 157.660743 136.92386 151.247121 143.337482 143.337482 143.337482 L 28.662519 143.337482 C 20.75288 143.337482 14.339258 136.92386 14.339258 128.999408 L 14.339258 43.000593 C 14.339258 35.076141 20.75288 28.662519 28.662519 28.662519 L 143.337482 28.662519 C 151.247121 28.662519 157.660743 35.076141 157.660743 43.000593 Z M 136.168445 121.830372 L 103.922592 78.830964 L 78.830964 111.150877 L 60.923184 89.584519 L 35.831556 121.830372 Z M 136.168445 121.830372 " transform="matrix(0.263721,0,0,0.263721,1.32,1.32)"/>
        <path style=" stroke:none;fill-rule:nonzero;fill:rgb(0%,0%,0%);fill-opacity:1;" d="M 39.121094 8.878906 L 8.878906 8.878906 C 6.792969 8.878906 5.101562 10.570312 5.101562 12.660156 L 5.101562 35.339844 C 5.101562 37.429688 6.792969 39.121094 8.878906 39.121094 L 39.121094 39.121094 C 41.207031 39.121094 42.898438 37.429688 42.898438 35.339844 L 42.898438 12.660156 C 42.898438 10.570312 41.207031 8.878906 39.121094 8.878906 Z M 10.769531 33.449219 L 17.386719 24.945312 L 22.109375 30.632812 L 28.726562 22.109375 L 37.230469 33.449219 Z M 10.769531 33.449219 "/>
    </g>
</svg>
