<svg class="_8h39" width="34px" height="34px" viewBox="0 0 34 34" version="1.1" xmlns="http://www.w3.org/2000/svg" style="background: inherit;">
    <g id="ic-stories" stroke="none" stroke-width="0.5" fill="black" fill-rule="evenodd" style="">
        <path d="M18.0434783,15.9565217 L23.6086957,15.9565217 C24.1849928,15.9565217 24.6521739,16.4237029 24.6521739,17 C24.6521739,17.5762971 24.1849928,18.0434783 23.6086957,18.0434783 L18.0434783,18.0434783 L18.0434783,23.6086957 C18.0434783,24.1849928 17.5762971,24.6521739 17,24.6521739 C16.4237029,24.6521739 15.9565217,24.1849928 15.9565217,23.6086957 L15.9565217,18.0434783 L10.3913043,18.0434783 C9.81500722,18.0434783 9.34782609,17.5762971 9.34782609,17 C9.34782609,16.4237029 9.81500722,15.9565217 10.3913043,15.9565217 L15.9565217,15.9565217 L15.9565217,10.3913043 C15.9565217,9.81500722 16.4237029,9.34782609 17,9.34782609 C17.5762971,9.34782609 18.0434783,9.81500722 18.0434783,10.3913043 L18.0434783,15.9565217 Z M5.92078825,5.5714188 C6.35436703,5.19177709 7.01361249,5.23550173 7.39325419,5.6690805 C7.7728959,6.10265928 7.72917127,6.76190474 7.29559249,7.14154645 C6.71800078,7.64728592 6.18425258,8.19044546 5.69924643,8.76605065 C5.32790475,9.20675887 4.66960823,9.26299156 4.22890001,8.89164988 C3.78819179,8.5203082 3.7319591,7.86201168 4.10330078,7.42130346 C4.65656591,6.76468853 5.26428895,6.14624978 5.92078825,5.5714188 Z M1.64343887,12.1858999 C1.80490537,11.6326848 2.38426929,11.3151098 2.93748439,11.4765763 C3.49069949,11.6380428 3.80827448,12.2174067 3.64680798,12.7706218 C3.27685734,14.0381435 3.08695652,15.3598615 3.08695652,16.7081702 C3.08695652,17.1254654 3.10514427,17.5404046 3.14129349,17.9522359 C3.19168524,18.5263257 2.76714412,19.032568 2.19305436,19.0829597 C1.6189646,19.1333515 1.11272231,18.7088104 1.06233056,18.1347206 C1.02085654,17.6622263 1,17.1864007 1,16.7081702 C1,15.1614755 1.21818424,13.6429036 1.64343887,12.1858999 Z M3.08434885,24.0133936 C2.86084037,23.482204 3.11026517,22.8704004 3.64145472,22.6468919 C4.17264428,22.4233834 4.78444791,22.6728082 5.00795639,23.2039978 C5.86461891,25.2399392 7.17069342,27.0162749 8.79844513,28.372149 C9.24124719,28.7409914 9.30120334,29.3989592 8.93236093,29.8417613 C8.56351853,30.2845634 7.90555069,30.3445195 7.46274863,29.9756771 C5.57646055,28.404449 4.06969303,26.3551595 3.08434885,24.0133936 Z M12.5785528,32.2930834 C12.0295327,32.1178826 11.7264922,31.5307856 11.901693,30.9817655 C12.0768938,30.4327454 12.6639908,30.1297049 13.2130109,30.3049057 C14.4725326,30.7068385 15.7853084,30.9130435 17.1243568,30.9130435 C19.3779715,30.9130435 21.5533755,30.3283302 23.5120979,29.2217307 C24.0138561,28.9382574 24.650412,29.1152124 24.9338852,29.6169706 C25.2173585,30.1187288 25.0404035,30.7552847 24.5386453,31.0387579 C22.2700618,32.3204164 19.7416967,33 17.1243568,33 C15.5690328,33 14.0422997,32.7601876 12.5785528,32.2930834 Z M29.2324557,27.5589439 C28.8627514,28.0010265 28.204668,28.0597008 27.7625853,27.6899965 C27.3205026,27.3202921 27.2618284,26.6622087 27.6315327,26.2201261 C29.7383831,23.70081 30.9130435,20.5195324 30.9130435,17.1523448 C30.9130435,9.3821968 24.67304,3.08695652 16.9802261,3.08695652 C16.403929,3.08695652 15.9367479,2.61977539 15.9367479,2.04347826 C15.9367479,1.46718113 16.403929,1 16.9802261,1 C25.8297716,1 33,8.23369967 33,17.1523448 C33,21.0130977 31.6507479,24.6672139 29.2324557,27.5589439 Z" id="Combined-Shape" fill="#fff" style="">
        </path>
    </g>
</svg>